TITLE ""
FILE "Disc2Track08.mp3" MP3
  TRACK 01 AUDIO
    TITLE "Disc2Track08_01"
    INDEX 01 00:00:00
  TRACK 02 AUDIO
    TITLE "Disc2Track08_02"
    INDEX 01 00:00:63
  TRACK 03 AUDIO
    TITLE "Disc2Track08_03"
    INDEX 01 00:02:62
  TRACK 04 AUDIO
    TITLE "Disc2Track08_04"
    INDEX 01 00:03:63
  TRACK 05 AUDIO
    TITLE "Disc2Track08_05"
    INDEX 01 00:07:30
  TRACK 06 AUDIO
    TITLE "Disc2Track08_06"
    INDEX 01 00:07:59
  TRACK 07 AUDIO
    TITLE "Disc2Track08_07"
    INDEX 01 00:09:03
  TRACK 08 AUDIO
    TITLE "Disc2Track08_08"
    INDEX 01 00:10:03
  TRACK 09 AUDIO
    TITLE "Disc2Track08_09"
    INDEX 01 00:11:22
  TRACK 10 AUDIO
    TITLE "Disc2Track08_10"
    INDEX 01 00:14:20
  TRACK 11 AUDIO
    TITLE "Disc2Track08_11"
    INDEX 01 00:14:50
  TRACK 12 AUDIO
    TITLE "Disc2Track08_12"
    INDEX 01 00:15:71
  TRACK 13 AUDIO
    TITLE "Disc2Track08_13"
    INDEX 01 00:17:50
  TRACK 14 AUDIO
    TITLE "Disc2Track08_14"
    INDEX 01 00:18:71
  TRACK 15 AUDIO
    TITLE "Disc2Track08_15"
    INDEX 01 00:25:69
  TRACK 16 AUDIO
    TITLE "Disc2Track08_16"
    INDEX 01 00:26:25
  TRACK 17 AUDIO
    TITLE "Disc2Track08_17"
    INDEX 01 00:27:46
  TRACK 18 AUDIO
    TITLE "Disc2Track08_18"
    INDEX 01 00:30:49
  TRACK 19 AUDIO
    TITLE "Disc2Track08_19"
    INDEX 01 00:31:66
  TRACK 20 AUDIO
    TITLE "Disc2Track08_20"
    INDEX 01 00:34:05
  TRACK 21 AUDIO
    TITLE "Disc2Track08_21"
    INDEX 01 00:34:35
  TRACK 22 AUDIO
    TITLE "Disc2Track08_22"
    INDEX 01 00:35:64
  TRACK 23 AUDIO
    TITLE "Disc2Track08_23"
    INDEX 01 00:37:70
  TRACK 24 AUDIO
    TITLE "Disc2Track08_24"
    INDEX 01 00:39:22
  TRACK 25 AUDIO
    TITLE "Disc2Track08_25"
    INDEX 01 00:39:61
  TRACK 26 AUDIO
    TITLE "Disc2Track08_26"
    INDEX 01 00:41:11
  TRACK 27 AUDIO
    TITLE "Disc2Track08_27"
    INDEX 01 00:42:34
  TRACK 28 AUDIO
    TITLE "Disc2Track08_28"
    INDEX 01 00:43:57
  TRACK 29 AUDIO
    TITLE "Disc2Track08_29"
    INDEX 01 00:46:67
  TRACK 30 AUDIO
    TITLE "Disc2Track08_30"
    INDEX 01 00:47:24
  TRACK 31 AUDIO
    TITLE "Disc2Track08_31"
    INDEX 01 00:48:49
  TRACK 32 AUDIO
    TITLE "Disc2Track08_32"
    INDEX 01 00:50:65
  TRACK 33 AUDIO
    TITLE "Disc2Track08_33"
    INDEX 01 00:52:13
  TRACK 34 AUDIO
    TITLE "Disc2Track08_34"
    INDEX 01 00:56:34
  TRACK 35 AUDIO
    TITLE "Disc2Track08_35"
    INDEX 01 00:56:64
  TRACK 36 AUDIO
    TITLE "Disc2Track08_36"
    INDEX 01 00:58:23
  TRACK 37 AUDIO
    TITLE "Disc2Track08_37"
    INDEX 01 01:01:16
  TRACK 38 AUDIO
    TITLE "Disc2Track08_38"
    INDEX 01 01:02:49
  TRACK 39 AUDIO
    TITLE "Disc2Track08_39"
    INDEX 01 01:04:55
  TRACK 40 AUDIO
    TITLE "Disc2Track08_40"
    INDEX 01 01:05:12
  TRACK 41 AUDIO
    TITLE "Disc2Track08_41"
    INDEX 01 01:06:54
  TRACK 42 AUDIO
    TITLE "Disc2Track08_42"
    INDEX 01 01:08:26
  TRACK 43 AUDIO
    TITLE "Disc2Track08_43"
    INDEX 01 01:09:64
  TRACK 44 AUDIO
    TITLE "Disc2Track08_44"
    INDEX 01 01:15:43
